<?xml version="1.0" standalone="no"?>
<!DOCTYPE svg PUBLIC "-//W3C//DTD SVG 20010904//EN"
 "http://www.w3.org/TR/2001/REC-SVG-20010904/DTD/svg10.dtd">
<svg version="1.0" xmlns="http://www.w3.org/2000/svg"
 width="1000.000000pt" height="1000.000000pt" viewBox="0 0 1000.000000 1000.000000"
 preserveAspectRatio="xMidYMid meet">
<metadata>
Created by potrace 1.14, written by Peter Selinger 2001-2017
</metadata>
<g transform="translate(0.000000,1000.000000) scale(0.100000,-0.100000)"
fill="#000000" stroke="none">
<path d="M1430 9981 c-168 -54 -287 -175 -338 -343 -4 -13 -8 -1832 -9 -4043
-3 -4395 -7 -4074 57 -4193 35 -66 132 -170 168 -178 12 -4 22 -10 22 -14 0
-7 77 -40 103 -44 6 -1 17 -4 22 -7 10 -6 72 -9 250 -12 l90 -2 2 -480 c1
-264 3 -487 5 -495 17 -71 82 -139 153 -159 29 -9 250 -11 830 -9 730 3 792 4
822 20 49 27 81 61 103 109 19 42 20 66 20 531 l0 487 1262 -2 1262 -2 1 -490
c1 -478 2 -491 22 -530 12 -22 34 -51 50 -65 66 -58 11 -55 871 -58 514 -2
806 1 831 8 56 15 108 59 135 114 l23 49 1 461 c1 254 1 473 1 487 l1 27 153
1 c168 1 191 4 257 29 68 25 117 55 167 103 49 46 113 138 113 162 0 7 4 17 9
22 4 6 13 30 19 55 16 61 16 8034 1 8100 -13 56 -59 160 -70 160 -5 0 -9 6 -9
13 0 8 -26 39 -58 70 -55 52 -134 97 -222 125 -25 9 -945 12 -3550 11 -3338 0
-3518 -1 -3570 -18z m5041 -701 c0 -14 1 -149 1 -300 l1 -275 -119 -3 c-142
-3 -116 -3 -244 -2 -58 0 -112 0 -120 0 -8 0 -62 0 -120 0 -58 0 -112 0 -120
0 -8 0 -62 0 -120 0 -58 0 -112 0 -120 0 -8 0 -62 0 -120 0 -58 0 -112 0 -120
0 -8 0 -62 0 -120 0 -58 0 -112 0 -120 0 -8 0 -62 0 -120 0 -58 0 -112 0 -120
0 -8 0 -62 0 -120 0 -58 0 -112 0 -120 0 -8 0 -62 0 -120 0 -58 0 -112 0 -120
0 -8 0 -62 0 -120 0 -58 0 -114 0 -125 0 -11 0 -120 0 -242 -1 l-221 0 2 26
c2 14 -1 25 -6 25 -5 0 -6 6 -2 12 11 17 12 339 1 361 -4 9 -4 17 0 17 5 0 8
35 7 78 -1 42 0 79 1 82 2 3 647 5 1434 5 l1431 0 1 -25z m1815 -2925 c0 -973
-1 -1775 -3 -1781 -3 -7 -35 -12 -86 -13 -45 0 -89 -1 -97 -1 -8 0 -72 1 -143
2 -70 2 -127 -1 -127 -5 0 -5 -6 -5 -12 0 -18 10 -220 10 -235 0 -7 -5 -13 -6
-13 -1 0 7 -221 9 -355 4 -5 -1 -43 1 -82 2 -40 2 -73 1 -73 -2 0 -3 -9 -6
-20 -6 -11 0 -20 3 -20 6 0 8 -144 5 -158 -4 -7 -4 -12 -4 -12 1 0 10 -121 10
-138 -1 -7 -4 -12 -4 -12 1 0 6 -323 8 -445 3 -5 -1 -43 1 -82 2 -40 2 -73 0
-73 -4 0 -4 -7 -5 -15 -2 -24 10 -175 10 -175 1 0 -4 -6 -5 -12 0 -18 10 -220
10 -235 0 -7 -5 -13 -6 -13 -1 0 7 -221 9 -355 4 -5 -1 -43 1 -82 2 -40 2 -73
0 -73 -5 0 -4 -8 -4 -17 1 -10 4 -45 7 -78 5 -33 -2 -64 -3 -70 -3 -5 -1 -43
1 -82 2 -40 2 -73 0 -73 -4 0 -4 -7 -5 -15 -2 -24 10 -175 10 -175 1 0 -4 -6
-5 -12 0 -18 10 -220 10 -235 0 -7 -5 -13 -6 -13 -1 0 7 -221 9 -355 4 -5 -1
-43 1 -82 2 -40 2 -73 1 -73 -2 0 -3 -9 -6 -20 -6 -11 0 -20 3 -20 6 0 8 -144
5 -158 -4 -7 -4 -12 -4 -12 1 0 10 -121 10 -138 -1 -7 -4 -12 -4 -12 1 0 6
-323 8 -445 3 -5 -1 -43 1 -82 2 -40 2 -73 0 -73 -4 0 -4 -7 -5 -15 -2 -24 10
-175 10 -175 1 0 -4 -6 -5 -12 0 -18 10 -220 10 -236 0 -6 -5 -12 -6 -12 -1 0
7 -221 9 -355 4 -5 -1 -43 1 -82 2 -40 2 -73 1 -73 -2 0 -3 -9 -6 -20 -6 -11
0 -20 3 -20 6 0 3 -43 5 -95 4 -53 0 -98 3 -101 7 -3 6 -5 1139 -4 3320 l0
235 3293 0 3292 -1 1 -1770z m-461 -2570 c180 -45 348 -159 446 -304 38 -56
79 -136 79 -156 0 -8 4 -15 8 -15 4 0 13 -26 20 -57 7 -32 15 -69 18 -83 21
-94 2 -275 -40 -390 -83 -224 -313 -422 -540 -466 -216 -41 -399 -7 -586 111
-57 36 -168 147 -206 205 -23 37 -73 132 -79 150 -30 101 -29 96 -40 150 -8
43 -9 182 -1 230 5 30 21 105 27 120 1 3 4 12 7 20 10 31 65 145 72 150 4 3
13 16 20 29 14 28 59 79 110 127 106 99 263 175 388 188 18 2 35 5 37 8 11 11
198 -1 260 -17z m-5362 -19 c17 -3 34 -6 37 -5 12 1 156 -55 161 -63 3 -5 9
-9 13 -8 15 4 123 -71 177 -122 31 -29 74 -78 96 -108 37 -53 93 -157 97 -183
1 -7 4 -16 8 -22 5 -9 17 -55 25 -100 9 -48 10 -204 2 -250 -12 -74 -15 -84
-40 -149 -80 -215 -256 -383 -471 -451 -152 -48 -271 -51 -433 -11 -52 12
-125 41 -125 48 0 5 -4 7 -9 4 -5 -3 -14 1 -21 9 -7 8 -17 15 -22 15 -36 0
-200 151 -256 236 -24 37 -84 165 -88 191 -3 15 -7 30 -10 35 -13 21 -18 73
-18 198 0 120 3 144 28 220 16 47 33 92 40 100 7 8 18 29 26 45 39 81 136 186
230 250 101 67 204 107 314 121 16 2 31 5 33 7 5 6 170 0 206 -7z"/>
</g>
</svg>
